<?xml version="1.0" standalone="no"?>
<!DOCTYPE svg PUBLIC "-//W3C//DTD SVG 1.1//EN" "http://www.w3.org/Graphics/SVG/1.1/DTD/svg11.dtd" >
<svg>
<metadata>
Created by FontForge 20110222 at Mon Mar  7 10:38:10 2011
 By www-data
Copyright (c) 2007 by Tjarda Koster. All rights reserved.
</metadata>
<defs>
<font id="Gubblebum-BlacknBlocky" horiz-adv-x="600" >
  <font-face 
    font-family="Gubblebum"
    font-weight="200"
    font-stretch="normal"
    units-per-em="1000"
    panose-1="2 0 5 6 0 0 0 2 0 4"
    ascent="800"
    descent="-200"
    x-height="400"
    cap-height="500"
    bbox="0 -100 700 600"
    underline-thickness="50"
    underline-position="-50"
    unicode-range="U+0020-007E"
  />
    <missing-glyph />
    <glyph glyph-name="space" unicode=" " horiz-adv-x="400" 
 />
    <glyph glyph-name="space" unicode="&#xa0;" horiz-adv-x="400" 
 />
    <glyph glyph-name="exclam" unicode="!" horiz-adv-x="300" 
d="M0 500h200v-300h-200v300zM0 100h200v-100h-200v100z" />
    <glyph glyph-name="quotedbl" unicode="&#x22;" 
d="M0 600h200v-200h-100v100h-100v100zM300 600h200v-200h-100v100h-100v100z" />
    <glyph glyph-name="numbersign" unicode="#" 
d="M100 500h100v-100h100v100h100v-100h100v-100h-100v-100h100v-100h-100v-100h-100v100h-100v-100h-100v100h-100v100h100v100h-100v100h100v100zM200 300v-100h100v100h-100z" />
    <glyph glyph-name="dollar" unicode="$" 
d="M200 600h100v-100h200v-100h-200v-100h200v-300h-200v-100h-100v100h-200v100h200v100h-200v300h200v100z" />
    <glyph glyph-name="percent" unicode="%" 
d="M0 500h100v-100h-100v100zM200 500h200v-100h-200v-200h-200v-200h-100v300h200v200zM400 100h100v-100h-100v100z" />
    <glyph glyph-name="ampersand" unicode="&#x26;" 
d="M0 500h200v-200h200v-100h-200v-100h200v-100h-500v500zM100 400v-100h100v100h-100zM100 200v-100h100v100h-100z" />
    <glyph glyph-name="quotesingle" unicode="'" horiz-adv-x="300" 
d="M0 600h200v-200h-100v100h-100v100z" />
    <glyph glyph-name="parenleft" unicode="(" horiz-adv-x="300" 
d="M0 600h200v-100h-100v-500h100v-100h-200v700z" />
    <glyph glyph-name="parenright" unicode=")" horiz-adv-x="300" 
d="M200 -100h-200v100h100v500h-100v100h200v-700z" />
    <glyph glyph-name="asterisk" unicode="*" horiz-adv-x="400" 
d="M100 600h100v-100h100v-100h-100v-100h-100v100h-100v100h100v100z" />
    <glyph glyph-name="plus" unicode="+" 
d="M200 500h100v-200h200v-100h-200v-200h-100v200h-200v100h200v200z" />
    <glyph glyph-name="comma" unicode="," horiz-adv-x="300" 
d="M0 100h200v-200h-100v100h-100v100z" />
    <glyph glyph-name="hyphen" unicode="-" horiz-adv-x="500" 
d="M0 300h400v-100h-400v100z" />
    <glyph glyph-name="hyphen" unicode="&#xad;" horiz-adv-x="500" 
d="M0 300h400v-100h-400v100z" />
    <glyph glyph-name="period" unicode="." horiz-adv-x="300" 
d="M0 100h200v-100h-200v100z" />
    <glyph glyph-name="slash" unicode="/" horiz-adv-x="300" 
d="M200 300h-100v300h100v-300zM100 0h-100v300h100v-300z" />
    <glyph glyph-name="zero" unicode="0" 
d="M0 500h500v-500h-500v500zM200 400v-300h100v300h-100z" />
    <glyph glyph-name="one" unicode="1" horiz-adv-x="300" 
d="M0 500h200v-500h-200v500z" />
    <glyph glyph-name="two" unicode="2" 
d="M0 500h500v-300h-300v-100h200v-100h-500v300h200v100h-300v100z" />
    <glyph glyph-name="three" unicode="3" 
d="M0 500h500v-500h-500v100h200v100h-300v100h200v100h-300v100z" />
    <glyph glyph-name="four" unicode="4" 
d="M0 500h200v-300h100v300h200v-500h-200v100h-300v400z" />
    <glyph glyph-name="five" unicode="5" 
d="M0 500h500v-100h-300v-100h200v-300h-500v100h200v100h-300v300z" />
    <glyph glyph-name="six" unicode="6" 
d="M200 200v-100h100v100h-100zM200 400v-100h200v-300h-500v500h500v-100h-300z" />
    <glyph glyph-name="seven" unicode="7" 
d="M0 500h500v-500h-200v200h-300v100h200v100h-300v100z" />
    <glyph glyph-name="eight" unicode="8" 
d="M0 500h500v-500h-500v500zM200 400v-100h100v100h-100zM200 200v-100h100v100h-100z" />
    <glyph glyph-name="nine" unicode="9" 
d="M300 300v100h-100v-100h100zM300 100v100h-300v300h500v-500h-500v100h200z" />
    <glyph glyph-name="colon" unicode=":" horiz-adv-x="300" 
d="M0 500h200v-100h-200v100zM0 100h200v-100h-200v100z" />
    <glyph glyph-name="semicolon" unicode=";" horiz-adv-x="300" 
d="M0 500h200v-100h-200v100zM0 100h200v-200h-100v100h-100v100z" />
    <glyph glyph-name="semicolon" unicode="&#x37e;" horiz-adv-x="300" 
d="M0 500h200v-100h-200v100zM0 100h200v-200h-100v100h-100v100z" />
    <glyph glyph-name="less" unicode="&#x3c;" horiz-adv-x="500" 
d="M100 500h200v-100h-200v-300h200v-100h-300v200h-100v100h100v200z" />
    <glyph glyph-name="equal" unicode="=" horiz-adv-x="500" 
d="M0 400h400v-100h-400v100zM0 200h400v-100h-400v100z" />
    <glyph glyph-name="greater" unicode="&#x3e;" horiz-adv-x="500" 
d="M300 300h100v-100h-100v-200h-300v100h200v300h-200v100h200v-200z" />
    <glyph glyph-name="question" unicode="?" horiz-adv-x="500" 
d="M0 500h400v-300h-300v100h100v100h-200v100zM100 100h200v-100h-200v100z" />
    <glyph glyph-name="at" unicode="@" horiz-adv-x="400" 
d="M0 400h200v-100h-200v-300h-100v400zM200 200h100v-200h-100v200z" />
    <glyph glyph-name="A" unicode="A" 
d="M0 500h500v-500h-200v200h-100v-200h-200v500zM200 400v-100h100v100h-100z" />
    <glyph glyph-name="B" unicode="B" 
d="M0 500h500v-200h-100v-100h100v-200h-500v500zM200 400v-100h100v100h-100zM200 200v-100h100v100h-100z" />
    <glyph glyph-name="C" unicode="C" 
d="M0 500h500v-200h-200v100h-100v-300h100v100h200v-200h-500v500z" />
    <glyph glyph-name="D" unicode="D" 
d="M0 500h500v-500h-500v500zM300 400v-300h100v300h-100z" />
    <glyph glyph-name="E" unicode="E" 
d="M0 500h500v-100h-200v-100h200v-100h-200v-100h200v-100h-500v500z" />
    <glyph glyph-name="F" unicode="F" 
d="M0 500h500v-100h-200v-100h200v-100h-200v-200h-300v500z" />
    <glyph glyph-name="G" unicode="G" 
d="M0 500h500v-100h-300v-300h100v200h200v-300h-500v500z" />
    <glyph glyph-name="H" unicode="H" 
d="M0 500h200v-200h100v200h200v-500h-200v200h-100v-200h-200v500z" />
    <glyph glyph-name="I" unicode="I" horiz-adv-x="300" 
d="M0 500h200v-500h-200v500z" />
    <glyph glyph-name="J" unicode="J" horiz-adv-x="500" 
d="M200 500h200v-500h-400v200h200v300z" />
    <glyph glyph-name="K" unicode="K" 
d="M0 500h200v-200h100v200h200v-200h-100v-100h100v-200h-200v200h-100v-200h-200v500z" />
    <glyph glyph-name="L" unicode="L" horiz-adv-x="500" 
d="M0 500h200v-300h200v-200h-400v500z" />
    <glyph glyph-name="M" unicode="M" horiz-adv-x="800" 
d="M0 500h200v-100h100v100h200v-500h-200v300h-100v-300h-100v300h-100v-300h-200v500z" />
    <glyph glyph-name="N" unicode="N" 
d="M0 500h100v-100h100v100h200v-500h-200v300h-100v-300h-200v500z" />
    <glyph glyph-name="O" unicode="O" 
d="M0 500h500v-500h-500v500zM200 400v-300h100v300h-100z" />
    <glyph glyph-name="P" unicode="P" 
d="M0 500h500v-300h-300v-200h-200v500zM200 400v-100h100v100h-100z" />
    <glyph glyph-name="Q" unicode="Q" 
d="M0 500h500v-600h-200v100h-300v500zM200 400v-300h100v300h-100z" />
    <glyph glyph-name="R" unicode="R" 
d="M0 500h500v-200h-100v-100h100v-200h-200v200h-100v-200h-200v500zM200 400v-100h100v100h-100z" />
    <glyph glyph-name="S" unicode="S" 
d="M0 500h500v-100h-200v-100h200v-300h-500v100h200v100h-200v300z" />
    <glyph glyph-name="T" unicode="T" horiz-adv-x="700" 
d="M0 500h600v-200h-200v-300h-200v300h-200v200z" />
    <glyph glyph-name="U" unicode="U" 
d="M0 500h200v-300h100v300h200v-500h-100v100h-100v-100h-300v500z" />
    <glyph glyph-name="V" unicode="V" 
d="M0 500h200v-300h100v300h200v-500h-500v500z" />
    <glyph glyph-name="W" unicode="W" horiz-adv-x="800" 
d="M0 500h200v-300h100v300h100v-300h100v300h200v-500h-300v100h-100v-100h-300v500z" />
    <glyph glyph-name="X" unicode="X" 
d="M0 500h200v-200h100v200h200v-200h-100v-100h100v-200h-200v200h-100v-200h-200v200h100v100h-100v200z" />
    <glyph glyph-name="Y" unicode="Y" 
d="M0 500h200v-300h100v300h200v-600h-300v100h-200v500z" />
    <glyph glyph-name="Z" unicode="Z" 
d="M0 500h500v-300h-200v-100h200v-100h-500v300h200v100h-200v100z" />
    <glyph glyph-name="bracketleft" unicode="[" horiz-adv-x="300" 
d="M0 600h200v-100h-100v-500h100v-100h-200v700z" />
    <glyph glyph-name="backslash" unicode="\" horiz-adv-x="300" 
d="M0 600h100v-300h-100v300zM100 300h100v-300h-100v300z" />
    <glyph glyph-name="bracketright" unicode="]" horiz-adv-x="300" 
d="M200 -100h-200v100h100v500h-100v100h200v-700z" />
    <glyph glyph-name="asciicircum" unicode="^" horiz-adv-x="400" 
d="M0 600h200v-200h-100v100h-100v-100h-100v200z" />
    <glyph glyph-name="underscore" unicode="_" horiz-adv-x="500" 
d="M0 0h400v-100h-400v100z" />
    <glyph glyph-name="grave" unicode="`" horiz-adv-x="200" 
d="M0 600h100v-200h-100v200z" />
    <glyph glyph-name="a" unicode="a" horiz-adv-x="500" 
d="M0 400h400v-400h-400v400zM100 300v-200h100v200h-100z" />
    <glyph glyph-name="b" unicode="b" horiz-adv-x="500" 
d="M0 500h200v-100h200v-400h-400v500zM200 300v-200h100v200h-100z" />
    <glyph glyph-name="c" unicode="c" horiz-adv-x="500" 
d="M0 400h400v-200h-100v100h-100v-200h200v-100h-400v400z" />
    <glyph glyph-name="d" unicode="d" horiz-adv-x="500" 
d="M200 500h200v-500h-400v400h200v100zM100 300v-200h100v200h-100z" />
    <glyph glyph-name="e" unicode="e" horiz-adv-x="500" 
d="M0 400h400v-200h-100v-100h100v-100h-400v400zM100 300v-200h100v200h-100z" />
    <glyph glyph-name="f" unicode="f" horiz-adv-x="500" 
d="M0 500h400v-200h-100v100h-100v-200h200v-100h-200v-100h-200v500z" />
    <glyph glyph-name="g" unicode="g" horiz-adv-x="500" 
d="M0 400h400v-400h-100v-100h-200v100h-100v400zM100 300v-200h100v200h-100z" />
    <glyph glyph-name="h" unicode="h" horiz-adv-x="500" 
d="M0 500h200v-100h200v-400h-100v300h-100v-300h-200v500z" />
    <glyph glyph-name="i" unicode="i" horiz-adv-x="300" 
d="M0 500h200v-100h-200v100zM0 300h200v-300h-200v300z" />
    <glyph glyph-name="j" unicode="j" horiz-adv-x="300" 
d="M0 500h200v-100h-200v100zM0 300h200v-400h-200v400z" />
    <glyph glyph-name="k" unicode="k" horiz-adv-x="500" 
d="M0 500h200v-200h100v100h100v-400h-100v200h-100v-200h-200v500z" />
    <glyph glyph-name="l" unicode="l" horiz-adv-x="300" 
d="M0 500h200v-500h-200v500z" />
    <glyph glyph-name="m" unicode="m" horiz-adv-x="700" 
d="M0 400h600v-400h-100v300h-100v-300h-100v300h-100v-300h-200v400z" />
    <glyph glyph-name="n" unicode="n" horiz-adv-x="500" 
d="M0 400h400v-400h-100v300h-100v-300h-200v400z" />
    <glyph glyph-name="o" unicode="o" horiz-adv-x="500" 
d="M0 400h400v-400h-400v400zM200 300v-200h100v200h-100z" />
    <glyph glyph-name="p" unicode="p" horiz-adv-x="500" 
d="M0 400h400v-400h-200v-100h-200v500zM200 300v-200h100v200h-100z" />
    <glyph glyph-name="q" unicode="q" horiz-adv-x="500" 
d="M0 400h400v-500h-200v100h-200v400zM100 300v-200h100v200h-100z" />
    <glyph glyph-name="r" unicode="r" horiz-adv-x="500" 
d="M0 400h400v-200h-100v100h-100v-300h-200v400z" />
    <glyph glyph-name="s" unicode="s" horiz-adv-x="500" 
d="M0 400h400v-100h-100v-100h100v-200h-400v100h200v100h-200v200z" />
    <glyph glyph-name="t" unicode="t" horiz-adv-x="500" 
d="M0 500h200v-100h200v-100h-200v-200h100v100h100v-200h-400v500z" />
    <glyph glyph-name="u" unicode="u" horiz-adv-x="500" 
d="M0 400h200v-300h100v300h100v-400h-400v400z" />
    <glyph glyph-name="v" unicode="v" horiz-adv-x="500" 
d="M0 400h200v-300h100v300h100v-400h-400v400z" />
    <glyph glyph-name="w" unicode="w" horiz-adv-x="700" 
d="M0 400h200v-300h100v300h100v-300h100v300h100v-400h-600v400z" />
    <glyph glyph-name="x" unicode="x" 
d="M0 400h200v-100h100v100h200v-100h-100v-100h100v-200h-200v200h-100v-200h-200v200h100v100h-100v100z" />
    <glyph glyph-name="y" unicode="y" horiz-adv-x="500" 
d="M0 400h100v-300h100v300h200v-500h-200v100h-200v400z" />
    <glyph glyph-name="z" unicode="z" horiz-adv-x="500" 
d="M0 400h400v-200h-200v-100h200v-100h-400v200h100v100h-100v100z" />
    <glyph glyph-name="braceleft" unicode="{" horiz-adv-x="400" 
d="M100 600h200v-100h-100v-500h100v-100h-200v300h-100v100h100v300z" />
    <glyph glyph-name="bar" unicode="|" horiz-adv-x="200" 
d="M0 600h100v-700h-100v700z" />
    <glyph glyph-name="braceright" unicode="}" horiz-adv-x="400" 
d="M200 300h100v-100h-100v-300h-200v100h100v500h-100v100h200v-300z" />
    <glyph glyph-name="asciitilde" unicode="~" 
d="M0 300h200v-100h100v100h100v-200h-300v100h-100v-100h-100v200z" />
  </font>
</defs>
</svg>
